<svg width="296" height="277" viewBox="0 0 296 277" fill="none" xmlns="http://www.w3.org/2000/svg">
<path fill-rule="evenodd" clip-rule="evenodd" d="M40 0C17.9086 0 0 17.9086 0 40V182C0 204.091 17.9086 222 40 222H64.2164C78.4424 222 88.9812 235.217 85.8137 249.086C81.3633 268.572 102.958 283.522 119.63 272.498L185.966 228.634C192.511 224.307 200.183 222 208.029 222H256C278.091 222 296 204.091 296 182V40C296 17.9086 278.091 0 256 0H40ZM24.1 102.6C23.7 103.2 23.5 103.967 23.5 104.9V109.1C23.5 110.033 23.7 110.8 24.1 111.4C24.5667 112 25.3333 112.633 26.4 113.3L68.4 140.3C68.7333 140.5 69.1 140.6 69.5 140.6C70.1 140.6 70.6 140.4 71 140C71.4 139.6 71.6 139.1 71.6 138.5V122.3C71.6 121.5 71.4 120.8 71 120.2C70.6667 119.6 70.1667 119.1 69.5 118.7C68.9 118.3 68.5333 118.067 68.4 118L50.9 107L68.4 96C68.5333 95.9333 68.8333 95.7333 69.3 95.4C69.8333 95.0667 70.3333 94.6333 70.8 94.1C71.3333 93.5 71.6 92.7 71.6 91.7V75.5C71.6 74.9 71.4 74.4 71 74C70.6 73.6 70.1 73.4 69.5 73.4C69.1 73.4 68.7333 73.5 68.4 73.7L26.4 100.7C25.3333 101.367 24.5667 102 24.1 102.6ZM151.361 72.8C150.828 72.2667 150.194 72 149.461 72H80.4609C79.7276 72 79.0943 72.2667 78.5609 72.8C78.0276 73.3333 77.7609 73.9667 77.7609 74.7V90.8C77.7609 91.5333 78.0276 92.1667 78.5609 92.7C79.0943 93.2333 79.7276 93.5 80.4609 93.5H101.961V139.3C101.961 140.033 102.228 140.667 102.761 141.2C103.294 141.733 103.928 142 104.661 142H125.261C125.994 142 126.628 141.733 127.161 141.2C127.694 140.667 127.961 140.033 127.961 139.3V93.5H149.461C150.194 93.5 150.828 93.2333 151.361 92.7C151.894 92.1667 152.161 91.5333 152.161 90.8V74.7C152.161 73.9667 151.894 73.3333 151.361 72.8ZM189.322 64.3C188.589 64.9 188.089 65.6 187.822 66.4L152.322 147.3C152.189 147.633 152.122 147.933 152.122 148.2C152.122 148.8 152.322 149.3 152.722 149.7C153.189 150.167 153.722 150.4 154.322 150.4H168.322C170.455 150.4 171.922 149.4 172.722 147.4L208.522 66.5C208.655 66.1667 208.722 65.8667 208.722 65.6C208.722 65 208.489 64.5 208.022 64.1C207.622 63.6333 207.122 63.4 206.522 63.4H192.222C191.089 63.4 190.122 63.7 189.322 64.3ZM271.283 111.4C271.749 110.8 271.983 110.033 271.983 109.1V104.9C271.983 103.967 271.749 103.2 271.283 102.6C270.883 102 270.149 101.367 269.083 100.7L227.083 73.7C226.749 73.5 226.383 73.4 225.983 73.4C225.383 73.4 224.883 73.6 224.483 74C224.083 74.4 223.883 74.9 223.883 75.5V91.7C223.883 92.5 224.049 93.2 224.383 93.8C224.783 94.4 225.283 94.9 225.883 95.3C226.549 95.7 226.949 95.9333 227.083 96L244.583 107L227.083 118C226.949 118.067 226.616 118.267 226.083 118.6C225.616 118.933 225.116 119.4 224.583 120C224.116 120.533 223.883 121.3 223.883 122.3V138.5C223.883 139.1 224.083 139.6 224.483 140C224.883 140.4 225.383 140.6 225.983 140.6C226.383 140.6 226.749 140.5 227.083 140.3L269.083 113.3C270.149 112.633 270.883 112 271.283 111.4Z" fill="#9966FF"/>
</svg>
